<svg xmlns="http://www.w3.org/2000/svg" viewBox="0 0 54.87 54.87"><defs><style>.cls-1{fill:#fff}</style></defs><title>icon-twitter</title><g id="Layer_2" data-name="Layer 2"><g id="social-media"><path class="cls-1" d="M54.87 44.58a10.29 10.29 0 0 1-10.29 10.29H10.29A10.29 10.29 0 0 1 0 44.58V10.29A10.29 10.29 0 0 1 10.29 0h34.29a10.29 10.29 0 0 1 10.29 10.29zM41.4 18.43a7.58 7.58 0 0 0 3.32-4.18 14.94 14.94 0 0 1-4.79 1.82 7.51 7.51 0 0 0-13 5.14 6.79 6.79 0 0 0 .18 1.71 21.31 21.31 0 0 1-15.5-7.86 7.61 7.61 0 0 0-1 3.79 7.39 7.39 0 0 0 3.25 6.25 9 9 0 0 1-3.57-.93v.07a7.64 7.64 0 0 0 6.18 7.36 6.27 6.27 0 0 1-1.82.29 9.22 9.22 0 0 1-1.39-.14 7.55 7.55 0 0 0 7 5.22 15.11 15.11 0 0 1-9.32 3.21 14.47 14.47 0 0 1-1.79-.11 21.38 21.38 0 0 0 11.5 3.36C34.44 43.44 42 32 42 22.08a8.85 8.85 0 0 0 0-1 14.42 14.42 0 0 0 3.75-3.89 15.82 15.82 0 0 1-4.35 1.24z" id="twitter"/></g></g></svg>