<svg xmlns="http://www.w3.org/2000/svg" viewBox="0 0 54.87 54.87"><defs><style>.cls-1{fill:#662602}</style></defs><title>icon-facebook-maroon</title><g id="Layer_2" data-name="Layer 2"><g id="social-media"><g id="maroon"><path class="cls-1" d="M54.87 10.29v34.29a10.29 10.29 0 0 1-10.29 10.29h-6.72V33.61H45l1-8.28h-8.14V20c0-2.39.64-4 4.11-4h4.36V8.61A56.9 56.9 0 0 0 40 8.29c-6.32 0-10.68 3.86-10.68 10.93v6.11h-7.17v8.29h7.14v21.25h-19A10.29 10.29 0 0 1 0 44.58V10.29A10.29 10.29 0 0 1 10.29 0h34.29a10.29 10.29 0 0 1 10.29 10.29z" id="facebook"/></g></g></g></svg>