<svg xmlns="http://www.w3.org/2000/svg" viewBox="0 0 499.77 182.96"><defs><style>.cls-1{fill:#662602}</style></defs><title>logo-magic-marble-steakhouse</title><g id="Layer_2" data-name="Layer 2"><g id="Averia_LIbre-Outline" data-name="Averia LIbre-Outline"><path class="cls-1" d="M206.18 150.27q-1.11 0-4.28-2a11 11 0 0 0-5.8-2 6.42 6.42 0 0 0-4.41 1.57 4.87 4.87 0 0 0-1.77 3.78 5.12 5.12 0 0 0 1.9 3.91 31.94 31.94 0 0 0 5.67 3.19 22.17 22.17 0 0 1 6.43 4.22 9.78 9.78 0 0 1 2.46 6.86 11.11 11.11 0 0 1-1.23 5.24q-4 7.85-15.53 7.85a21.41 21.41 0 0 1-8.79-1.87q-2.9-1.29-2.9-3.54v-.79a4.18 4.18 0 0 1 1.1-2.87 3 3 0 0 1 2.12-1.23q1 0 3.63 2a16.91 16.91 0 0 0 3.85 2.43 12.24 12.24 0 0 0 3.81.44 6.78 6.78 0 0 0 4.61-1.82 6.11 6.11 0 0 0 2.05-4.8 4.45 4.45 0 0 0-1.68-3.46 29.18 29.18 0 0 0-6.14-3.57 19.49 19.49 0 0 1-6.49-4.48 9.85 9.85 0 0 1-2-6.62 9.48 9.48 0 0 1 1.17-4.31 13.43 13.43 0 0 1 8-6.56 14.5 14.5 0 0 1 4.66-.79h.94q8.06 0 10.2 2.49a3.34 3.34 0 0 1 .94 2.08v.79a4 4 0 0 1-1 2.84q-1.05 1.02-1.52 1.02zm34.24-.04q0 4.3-2.05 4.3a21.6 21.6 0 0 1-2.33-.84 10.26 10.26 0 0 0-3.54-.84 2.94 2.94 0 0 0-2.12.72 5.7 5.7 0 0 0-1.23 2.65q-.1.37-1.63 9a95.89 95.89 0 0 0-1.52 10.35l.42 3.22q0 2.17-1 2.88a5.6 5.6 0 0 1-3.15.71h-1.34a4.89 4.89 0 0 1-2.86-.52 1.9 1.9 0 0 1-.59-1.49 7.74 7.74 0 0 1 1.05-3 21.28 21.28 0 0 0 1.61-4.13l2.1-11.55a55 55 0 0 0 1-6.65 2.47 2.47 0 0 0-.43-1.71 2.55 2.55 0 0 0-1.75-.43 10.55 10.55 0 0 0-3.71 1 12.53 12.53 0 0 1-2.9 1q-1.2 0-1.2-1.15a7.83 7.83 0 0 1 .62-3.6 3.27 3.27 0 0 1 1.79-1.56q1.17-.43 12.72-.43h8.94a4.1 4.1 0 0 1 2.56.55 2 2 0 0 1 .54 1.52zm17.07 32.17h-10.11q-5.66 0-6.71-.39a1.57 1.57 0 0 1-1-1.64 6.22 6.22 0 0 1 .89-2.36 12.65 12.65 0 0 0 1.16-2.77q3.74-15.38 3.74-20.43a24 24 0 0 0-.18-2.75q-.18-1.57-.18-1.67 0-1.44 1.83-1.83a89.42 89.42 0 0 1 9.89-.27h6.49a6.71 6.71 0 0 1 3.09.5 2 2 0 0 1 .87 1.93 3.89 3.89 0 0 1-.79 2.45 2.21 2.21 0 0 1-1.72 1l-3.31-.66a28.84 28.84 0 0 0-5.66-.66 4.23 4.23 0 0 0-3.36 1.1 9.93 9.93 0 0 0-1 2.84 15.65 15.65 0 0 0-.65 3.48 1.59 1.59 0 0 0 .79 1.5 5.43 5.43 0 0 0 2.56.45 21 21 0 0 0 2.65-.12l.81-.12a13.86 13.86 0 0 1 2.21-.22 2.42 2.42 0 0 1 1.51.48 1.38 1.38 0 0 1 .62 1.11 7 7 0 0 1-.61 3.13 2 2 0 0 1-1.83 1.22q-.42 0-2.49-.33a21.83 21.83 0 0 0-3.12-.33q-3.25 0-4.47 1.53t-1.22 6.26q0 1.9.72 2.43a5.85 5.85 0 0 0 3.06.53 20.39 20.39 0 0 0 5.14-.73 18.33 18.33 0 0 1 3.94-.73q1.15 0 1.44.54a4.91 4.91 0 0 1 .29 2.08 3 3 0 0 1-1.2 2.49 6.57 6.57 0 0 1-4.09.96zm29.34-34.3a3.64 3.64 0 0 1 2.36.68 5.09 5.09 0 0 1 1.4 2.44q.56 1.76 2.23 11.78t1.83 10.72a9 9 0 0 0 .79 1.93 5 5 0 0 1 .63 2.23v.61a4.32 4.32 0 0 1-1.64 3.13 3.35 3.35 0 0 1-2.31.63 6 6 0 0 1-2.8-.61 1.45 1.45 0 0 1-.73-1.44l.1-1v-1.68q0-3.47-.93-4.57-.59-.71-3.32-.71h-2.64q-4 0-5 .75t-2.39 4.24a10.7 10.7 0 0 0-.71 2.41 4.83 4.83 0 0 1-.42 1.53q-.73 1.12-3.27 1.12h-.61a2.78 2.78 0 0 1-1.61-.45 2.21 2.21 0 0 1-.66-1.92 5 5 0 0 1 1.29-3.08 68.71 68.71 0 0 0 7.42-12.76 133.52 133.52 0 0 1 7.42-13.81 4.05 4.05 0 0 1 3.57-2.17zm.71 19.21V167a48 48 0 0 0-1.68-11.25l-.07-.24h-.07s-.11.13-.24.39l-.54 1-.07.17-.17.29-.15.29-.1.15-.17.32q-5 8.5-5 9.57v.1q0 .27 3.61.27H286q1.54-.06 1.54-.74zm40.6-18.6h.86q2 0 2 .71 0 .24-6.69 6.82t-6.69 7.39a49.52 49.52 0 0 0 3.06 6.07 72.77 72.77 0 0 0 4.71 7.86 6.72 6.72 0 0 1 1.65 3.67q0 1.22-3.93 1.22a3.6 3.6 0 0 1-3-1.32 5.26 5.26 0 0 1-.55-1.06q-.38-.87-1-2t-.83-1.64q-4.3-8.62-5.32-8.62-1.42 0-2.36 2.22a13 13 0 0 0-.94 5.1v2.47q0 2.83-1.18 3.78a5.48 5.48 0 0 1-3.49 1 6.35 6.35 0 0 1-2.83-.37 1.48 1.48 0 0 1-.53-1.31 6.55 6.55 0 0 1 .92-2.7 12.87 12.87 0 0 0 1.26-3.61q3.15-16.65 3.15-20.17a5.11 5.11 0 0 0-.3-1.43 5.4 5.4 0 0 1-.31-1.21 2.16 2.16 0 0 1 .89-2A6.45 6.45 0 0 1 310 149q3.52 0 3.52 1.81a20.05 20.05 0 0 1-1.18 3.92 17.87 17.87 0 0 0-1.18 6q0 .78.83.78 1.25 0 8.47-7.08a15.16 15.16 0 0 0 2.15-2.47l.39-.66.29-.61a3.38 3.38 0 0 1 .88-1.15 7.08 7.08 0 0 1 3.97-.83zm12.5 29.59q0 3.83-5.42 3.83-3 0-3-1.21a4.74 4.74 0 0 1 1-2.64 8.66 8.66 0 0 0 1.36-3.06q3.37-14.79 3.37-20.19l-.1-.71-.15-.68a9.78 9.78 0 0 1-.17-1.51 2.6 2.6 0 0 1 1.12-2.5 6.79 6.79 0 0 1 3.24-.62 9.23 9.23 0 0 1 2.79.27q1.15.44 1.15 1.22a5.77 5.77 0 0 1-.71 2.25 18.4 18.4 0 0 0-1.93 8.15 1.72 1.72 0 0 0 .49 1.33 3.93 3.93 0 0 0 2.37.45l3 .07h4.21a3.43 3.43 0 0 0 3.16-1.49q1.27-2.05 1.27-7v-.83l-.1-.78a3.52 3.52 0 0 1 1.49-3.25 8.3 8.3 0 0 1 4.35-.93h.93q1.68 0 1.68 1.1a6.33 6.33 0 0 1-.93 3 12.09 12.09 0 0 0-1.17 2.66q-.24 1-2 10.19t-1.71 10a10.34 10.34 0 0 0 .23 2q.23 1.16.23 1.21 0 2.15-1.22 2.83a7.93 7.93 0 0 1-3.16.39 9.78 9.78 0 0 1-3.31-.37 1.58 1.58 0 0 1-.85-1.64 6.78 6.78 0 0 1 .76-2.25 21.82 21.82 0 0 0 1.07-2.69 23.19 23.19 0 0 0 1.22-6.67 1.43 1.43 0 0 0-1-1.56 19.55 19.55 0 0 0-2.76-.1q-7.3 0-8.46.81a5.34 5.34 0 0 0-1.76 3.2 21.93 21.93 0 0 0-.6 5.32v.78zm59.57-17.41V162a22.62 22.62 0 0 1-1.48 7.81 21.78 21.78 0 0 1-4.06 7 18.89 18.89 0 0 1-5.91 4.56 15.1 15.1 0 0 1-6.69 1.62h-1.12q-8.74 0-11.82-7.71a14.25 14.25 0 0 1-1-5.37v-1.25a23.55 23.55 0 0 1 5.14-14.36 19.29 19.29 0 0 1 5.82-4.77 14.92 14.92 0 0 1 7.18-1.84H388a12.83 12.83 0 0 1 4.79 1 11.07 11.07 0 0 1 6.35 6.47 15.46 15.46 0 0 1 1.07 5.73zm-6.21 1.4v-1.12a9.86 9.86 0 0 0-2.08-6.65 6.64 6.64 0 0 0-5.25-2.4h-.76q-4.59 0-8.06 4.93a18.29 18.29 0 0 0-2.48 5.25 19.28 19.28 0 0 0-1 5.62v1.51a10.67 10.67 0 0 0 1.78 6.25 6.29 6.29 0 0 0 2.43 2.12 6.91 6.91 0 0 0 3.11.73h.76a8 8 0 0 0 4.37-1.34q4.2-2.69 6.27-9.3a18.8 18.8 0 0 0 .91-5.6zm17.1 9.59q0 6.32 6.13 6.32 4.86 0 7.23-4.86 1-2 2.41-9.81a77 77 0 0 0 1.43-9.89l-.17-2.88a2 2 0 0 1 1.16-2.08 8.45 8.45 0 0 1 3.31-.51h.85q1.88 0 1.88 2.88a7.39 7.39 0 0 1-.83 2.64 23.41 23.41 0 0 0-1.1 2.7q-.27.89-1.34 6.7-1.81 9.81-3.65 13.12a12 12 0 0 1-5.05 5 14.89 14.89 0 0 1-6.95 1.66h-1.07a12.23 12.23 0 0 1-4.22-.76q-6-2.15-6-9.2 0-1.34 1.07-8.86t1.07-8.13l-.32-2.66a5.2 5.2 0 0 1 1.88-4.37q.59-.46 3.56-.46t3 1.44l-1.34 4q-.27.81-1.6 8.46a80.55 80.55 0 0 0-1.34 9.55zm48.53-16.26q-.93 0-3.56-1.68a9.16 9.16 0 0 0-4.83-1.68 5.35 5.35 0 0 0-3.67 1.31 4.06 4.06 0 0 0-1.48 3.15 4.26 4.26 0 0 0 1.59 3.26 26.6 26.6 0 0 0 4.72 2.66 18.47 18.47 0 0 1 5.36 3.52 8.15 8.15 0 0 1 2.05 5.71 9.26 9.26 0 0 1-1 4.37q-3.37 6.54-12.94 6.54a17.84 17.84 0 0 1-7.32-1.56q-2.42-1.07-2.42-3v-.66a3.48 3.48 0 0 1 .92-2.39 2.51 2.51 0 0 1 1.77-1q.85 0 3 1.66a14.14 14.14 0 0 0 3.21 2 10.21 10.21 0 0 0 3.17.37 5.65 5.65 0 0 0 3.85-1.51 5.09 5.09 0 0 0 1.71-4 3.71 3.71 0 0 0-1.4-2.88 24.32 24.32 0 0 0-5.11-3 16.23 16.23 0 0 1-5.41-3.74 8.21 8.21 0 0 1-1.7-5.52 7.9 7.9 0 0 1 1-3.59 11.19 11.19 0 0 1 6.64-5.47 12.08 12.08 0 0 1 3.88-.66h.78q6.71 0 8.5 2.08a2.78 2.78 0 0 1 .78 1.73v.66a3.37 3.37 0 0 1-.83 2.37q-.89.95-1.26.95zm22 26.78h-10.11q-5.66 0-6.71-.39a1.57 1.57 0 0 1-1-1.64 6.22 6.22 0 0 1 .89-2.36 12.65 12.65 0 0 0 1.16-2.77q3.74-15.38 3.74-20.43a24 24 0 0 0-.18-2.75q-.18-1.57-.18-1.67 0-1.44 1.83-1.83a89.42 89.42 0 0 1 9.89-.27h6.49a6.71 6.71 0 0 1 3.09.5 2 2 0 0 1 .87 1.93 3.89 3.89 0 0 1-.79 2.45 2.21 2.21 0 0 1-1.72 1l-3.31-.66a28.84 28.84 0 0 0-5.66-.66 4.23 4.23 0 0 0-3.36 1.1 9.93 9.93 0 0 0-1 2.84 15.65 15.65 0 0 0-.65 3.48 1.59 1.59 0 0 0 .79 1.5 5.43 5.43 0 0 0 2.56.45 21 21 0 0 0 2.65-.12l.81-.12a13.86 13.86 0 0 1 2.21-.22 2.42 2.42 0 0 1 1.51.48 1.38 1.38 0 0 1 .62 1.11 7 7 0 0 1-.61 3.13 2 2 0 0 1-1.83 1.22q-.42 0-2.49-.33a21.83 21.83 0 0 0-3.12-.33q-3.25 0-4.47 1.53t-1.22 6.26q0 1.9.72 2.43a5.85 5.85 0 0 0 3.06.53 20.39 20.39 0 0 0 5.14-.73 18.33 18.33 0 0 1 3.94-.73q1.15 0 1.44.54a4.9 4.9 0 0 1 .29 2.08 3 3 0 0 1-1.2 2.49 6.57 6.57 0 0 1-4.09.96z" id="Steakhouse"/><path class="cls-1" d="M314.44 99.58q-.35 0-2.87 10.87a71.89 71.89 0 0 0-1.16 7.44q-.57 4.92-.72 5.24a3.61 3.61 0 0 1-1.79 1.6 5.88 5.88 0 0 1-2.67.72 2.89 2.89 0 0 1-2.09-.81 2.29 2.29 0 0 1-.83-1.61 11.23 11.23 0 0 1 1.17-3.38 27.06 27.06 0 0 0 1.82-5.65l1-5.86q.7-3.84 1.48-7.54t1-5.7l.35-2.87.23-3.6q.59-2.05 4.89-2.05a4.73 4.73 0 0 1 3.12 1.45 9.83 9.83 0 0 1 2.48 3.57q.88 2.12 3.24 11t2.86 8.92l.73-1 5.45-8.67q1-1.55 1.64-2.64l1.61-2.7a74.31 74.31 0 0 1 4.39-6.71 10 10 0 0 1 3.06-2.52 7.67 7.67 0 0 1 3.66-1 3.23 3.23 0 0 1 2.68 1l.26.73a8.15 8.15 0 0 1-.4 2.07 42.75 42.75 0 0 0-.89 4.26l-.26 1.52-.45 3.34-.43 3.1q-2.17 14.5-2.17 16.44l.09 1.32q.2 1.93.21 2.72a3.74 3.74 0 0 1-1 2 3.37 3.37 0 0 1-2.86 1.25 8.27 8.27 0 0 1-3.56-.78q-1.66-.78-1.66-2.09l.15-1.11 1.08-3.9q.67-2.64 1.71-9.59t1-8.13q0-1.17-.23-1.17-.41 0-5.46 8.7t-7 11.5q-1.93 2.8-4.45 2.8-1.67 0-2.55-2.64l-1.46-6q-3.26-13.84-4.4-13.84zm56.35-7.17a3.64 3.64 0 0 1 2.36.68 5.09 5.09 0 0 1 1.4 2.44q.56 1.76 2.23 11.78t1.83 10.69a9 9 0 0 0 .79 1.93 5 5 0 0 1 .63 2.23v.61a4.32 4.32 0 0 1-1.64 3.13 3.36 3.36 0 0 1-2.31.63 6 6 0 0 1-2.8-.61 1.45 1.45 0 0 1-.73-1.44l.1-1v-1.68q0-3.47-.93-4.57-.59-.71-3.32-.71h-2.64q-4 0-5 .74t-2.39 4.24a10.7 10.7 0 0 0-.71 2.4 4.83 4.83 0 0 1-.42 1.53q-.73 1.12-3.27 1.12h-.61a2.78 2.78 0 0 1-1.61-.45 2.21 2.21 0 0 1-.66-1.92 5 5 0 0 1 1.29-3.08 68.73 68.73 0 0 0 7.42-12.76 133.52 133.52 0 0 1 7.42-13.81 4.05 4.05 0 0 1 3.57-2.12zm.71 19.21v-.34a48 48 0 0 0-1.69-11.28l-.07-.24h-.07s-.11.13-.24.39l-.54 1-.07.17-.17.29-.15.29-.1.15-.17.32q-5 8.5-5 9.57v.1q0 .27 3.61.27h3.05q1.61.02 1.61-.69zm24.75 1.27a3.15 3.15 0 0 0-2.81 2q-.66 1.25-.66 5.42t-1.14 5.24q-1.13 1.06-4.38 1.06a4.24 4.24 0 0 1-2.37-.44 1.45 1.45 0 0 1-.56-1.21 9.51 9.51 0 0 1 1-3 19 19 0 0 0 1.27-3.47q3.66-16.33 3.66-21.58 0-.27-.1-1.22l-.07-.59-.2-1q0-.85 1.21-1.18a38.5 38.5 0 0 1 6.8-.33h3.01q5.88 0 8.61 2a7.18 7.18 0 0 1 2.72 6.14q0 5.4-5.27 9-2.2 1.51-2.2 2.88t2.47 6.3a16 16 0 0 0 1.76 2.64 4.48 4.48 0 0 1 1.15 2.73 2.67 2.67 0 0 1-.5 1.83 3.29 3.29 0 0 1-2.28.54h-.73a4 4 0 0 1-3.39-1.49 22.36 22.36 0 0 1-2.11-5.15 35.33 35.33 0 0 0-1.87-5 3.55 3.55 0 0 0-3.02-2.12zm-.17-4.74h1.83q5.88 0 7.74-4a7 7 0 0 0 .63-3V101a3.85 3.85 0 0 0-1.36-3.16 5.16 5.16 0 0 0-3.38-1.11 5.43 5.43 0 0 0-.63 0h-1.47q-2.71 0-3.08 1-.1.27-.94 4.75t-.84 4.63v.51q.01.53 1.5.53zm46.63-8.39q0 5.1-4.83 8-.73.44-.73.63t1.51 1.26a6.91 6.91 0 0 1 2.25 2.49 8.46 8.46 0 0 1 .73 3.83 8.81 8.81 0 0 1-1.22 4.5 11.88 11.88 0 0 1-7.89 5.52 25.68 25.68 0 0 1-5.91.59h-4.72q-6.69 0-6.69-.88v-.46a16.14 16.14 0 0 1 .93-2.14 17.75 17.75 0 0 0 1.32-3.75q3.76-17.29 3.76-21.75a8.83 8.83 0 0 0-.26-1.84q-.26-1.14-.26-1.21a1.75 1.75 0 0 1 1.61-1.9q.78-.15 6.47-.15h3q5.35 0 8 1.59a6.16 6.16 0 0 1 2.93 5.67zM426 122.41h1.51a9.48 9.48 0 0 0 5.93-1.71 5.8 5.8 0 0 0 2.22-4.88v-.22q0-4.64-6-4.64h-2.78q-1.93 0-2.22.9a30.14 30.14 0 0 0-1.73 9.45v.17q.07.93 3.07.93zm1.07-15.5h1.85q3.66 0 5.3-1.22a5.62 5.62 0 0 0 2.51-4.64v-.78a3 3 0 0 0-1.39-2.72 6.36 6.36 0 0 0-3.49-.89h-2.05q-2.12 0-2.38.63a7.25 7.25 0 0 0-.4 1.67q-.15 1-.71 3.87a29 29 0 0 0-.56 3.37v.15q-.01.56 1.34.56zM445.54 125a8.85 8.85 0 0 1 .87-2.48 21 21 0 0 0 1.28-3.7q3.31-14.33 3.31-19.6l-.51-3.32a3.06 3.06 0 0 1 1.49-3 10.08 10.08 0 0 1 3.49-.34h1.2q2.47 0 2.47 2a11.29 11.29 0 0 1-.79 2.1 21 21 0 0 0-1.13 3.21q-.34 1.38-1.93 10.16t-1.59 10a2 2 0 0 0 .78 1.77 7.06 7.06 0 0 0 3.36.51 19.6 19.6 0 0 0 5.74-1 20.34 20.34 0 0 1 3.89-1q1.1 0 1.1 1.56a5.39 5.39 0 0 1-1.09 3.81q-1.09 1.12-4.75 1.12h-3.69l-6.86-.15a37.33 37.33 0 0 1-5.32-.2 1.49 1.49 0 0 1-1.32-1.45zm44.51 1.71h-10.11q-5.66 0-6.71-.39a1.57 1.57 0 0 1-1-1.64 6.22 6.22 0 0 1 .89-2.36 12.66 12.66 0 0 0 1.16-2.77Q478 104.17 478 99.12a24 24 0 0 0-.18-2.75q-.18-1.57-.18-1.67 0-1.44 1.83-1.83a89.42 89.42 0 0 1 9.89-.27h6.49a6.71 6.71 0 0 1 3.09.5 2 2 0 0 1 .87 1.93 3.89 3.89 0 0 1-.79 2.45 2.21 2.21 0 0 1-1.72 1l-3.31-.66a28.84 28.84 0 0 0-5.66-.66 4.23 4.23 0 0 0-3.36 1.1 9.93 9.93 0 0 0-1 2.84 15.65 15.65 0 0 0-.65 3.48 1.59 1.59 0 0 0 .79 1.5 5.43 5.43 0 0 0 2.56.45 21 21 0 0 0 2.65-.12l.81-.12a13.86 13.86 0 0 1 2.21-.22 2.42 2.42 0 0 1 1.51.48 1.38 1.38 0 0 1 .62 1.11 7 7 0 0 1-.61 3.13A2 2 0 0 1 492 112q-.42 0-2.49-.33a21.83 21.83 0 0 0-3.12-.33q-3.25 0-4.47 1.53t-1.22 6.26q0 1.9.72 2.43a5.86 5.86 0 0 0 3.06.52 20.39 20.39 0 0 0 5.14-.73 18.33 18.33 0 0 1 3.94-.73q1.15 0 1.44.54a4.91 4.91 0 0 1 .29 2.08 3 3 0 0 1-1.2 2.49 6.57 6.57 0 0 1-4.04.98z" id="Marble"/><path class="cls-1" d="M188.38 92.62a3.64 3.64 0 0 1 2.36.68 5.09 5.09 0 0 1 1.4 2.44q.56 1.76 2.23 11.78t1.83 10.72a9 9 0 0 0 .79 1.93 5 5 0 0 1 .63 2.23v.6a4.32 4.32 0 0 1-1.64 3.13 3.36 3.36 0 0 1-2.31.63 6 6 0 0 1-2.8-.61 1.45 1.45 0 0 1-.73-1.44l.1-1v-1.68q0-3.47-.93-4.57-.59-.71-3.32-.71h-2.64q-4 0-5 .74t-2.35 4.28a10.7 10.7 0 0 0-.71 2.4 4.83 4.83 0 0 1-.42 1.53q-.73 1.12-3.27 1.12h-.6a2.78 2.78 0 0 1-1.61-.45 2.21 2.21 0 0 1-.66-1.92 5 5 0 0 1 1.29-3.08 68.73 68.73 0 0 0 7.42-12.76 133.52 133.52 0 0 1 7.42-13.81 4.05 4.05 0 0 1 3.52-2.18zm.71 19.21v-.34a48 48 0 0 0-1.68-11.25l-.07-.24h-.07s-.11.13-.24.39l-.54 1-.07.17-.17.29-.15.29-.1.15-.17.32q-5 8.5-5 9.57v.1q0 .27 3.61.27h3.05q1.6-.01 1.6-.72zm34.37-19.33h.9a10.83 10.83 0 0 1 5.32 1.17q2.1 1.17 2.1 2.81v.76a2.48 2.48 0 0 1-.82 1.9 2.64 2.64 0 0 1-1.84.76 42.16 42.16 0 0 1-4.12-1.84 11.4 11.4 0 0 0-4.86-.93H220a8 8 0 0 0-4 1.29 11.64 11.64 0 0 0-3.81 3.66 18.74 18.74 0 0 0-3 10.64 9.42 9.42 0 0 0 2.05 6.35 8 8 0 0 0 6.49 2.78 6.34 6.34 0 0 0 4.13-1.27 3.45 3.45 0 0 0 1.56-2.54 5.79 5.79 0 0 0-1.35-3.14 7.73 7.73 0 0 1-1.36-2.23 1.12 1.12 0 0 1 .81-1.15 12.41 12.41 0 0 1 4-.49q4.69 0 4.69 1.88a8.06 8.06 0 0 1-.51 2.14q-.51 1.53-1.26 4.87a11 11 0 0 1-1.67 4.42 7.5 7.5 0 0 1-3.59 1.83 29 29 0 0 1-7.28 1.32 11.9 11.9 0 0 1-4.94-1.06 13 13 0 0 1-4.24-3.1 13.41 13.41 0 0 1-2.82-4.72 16.37 16.37 0 0 1-.94-5.44v-1a19.33 19.33 0 0 1 1.66-7.78 22.58 22.58 0 0 1 4.46-6.73 15.81 15.81 0 0 1 6-4.06 25 25 0 0 1 8.38-1.1zm23.39.29h1.42q1.93 0 1.93 1.66A6.12 6.12 0 0 1 249 97a15 15 0 0 0-1.83 4.52q0 .24-1.49 8.25a93.57 93.57 0 0 0-1.44 9.4 10.3 10.3 0 0 0 .42 2.84 10 10 0 0 1 .42 1.79 2.74 2.74 0 0 1-1 2.23 4.53 4.53 0 0 1-2.94.82h-1.85a11.6 11.6 0 0 1-3.15-.24 1.47 1.47 0 0 1-1-1.45q0-1 1.68-3.48a10.94 10.94 0 0 0 1.42-3.54q2.83-11.65 2.83-18.29a7 7 0 0 0-.46-2.08 7.6 7.6 0 0 1-.46-1.68 2.8 2.8 0 0 1 1.76-2.78 14.87 14.87 0 0 1 4.94-.52zm6.06 21.21v-.76a22.88 22.88 0 0 1 1.51-8.15 19.08 19.08 0 0 1 10-11.18 15.28 15.28 0 0 1 6.35-1.49h.71q5.42 0 7.67 1.1a4 4 0 0 1 1.71 1.67 4.33 4.33 0 0 1 .68 2.1 3.34 3.34 0 0 1-.7 1.9 2 2 0 0 1-1.59 1 9.68 9.68 0 0 1-3.58-1.62 9.89 9.89 0 0 0-5.04-1.57 8.51 8.51 0 0 0-4.63 1.38q-4.49 2.86-6.08 9.2a22.25 22.25 0 0 0-.71 5.35q0 4.91 2.17 7.29a7.51 7.51 0 0 0 5.83 2.38 13.85 13.85 0 0 0 5-1.28 14.32 14.32 0 0 1 4.06-1.28q1.32 0 1.32 1.78a3.3 3.3 0 0 1-1 2 10.94 10.94 0 0 1-3.69 2.37 14.93 14.93 0 0 1-6.21 1.22 18.13 18.13 0 0 1-5.85-.81 10.9 10.9 0 0 1-4.11-2.55 12.46 12.46 0 0 1-2.82-4.33 15.09 15.09 0 0 1-1-5.72z" id="agic"/><path id="M" class="cls-1" d="M218.08 40.84s7.3-3.44 9.88-6.87 6.87-11.59 6.44-12.88-4.72 7.3-9.23 10.09a24.51 24.51 0 0 1-9.66 3.22l-12-12.88s7.3-4.29 12.24-7.94S225 .91 223.66 0s-10.3 10.35-17.17 12.5-18.47 3-20.18 5.58a8.83 8.83 0 0 0-1.31 5.59 40.35 40.35 0 0 0-4.45-2.55l-.18-.13a21.46 21.46 0 0 0-3-1.73c-.51-.23-1-.46-1.5-.65l-1.44-.5a26.3 26.3 0 0 0-4.94-1c-.9-.09-1.69-.13-2.41-.15a24.67 24.67 0 0 0-6.41.14 68.82 68.82 0 0 0-13.65 4l-.92.33c-1.25.48-3.75 1.52-7.14 3.17-3.69 1.75-6.14 3.09-6.14 3.09v.07c-3 1.67-6.45 3.66-10.14 6-5.78 3.62-12.24 8-19.08 13q-4.39 3.23-9 6.8c0-.19.05-.37.07-.56a21.07 21.07 0 0 0 .08-3.46 12.18 12.18 0 0 0-1-4 9.77 9.77 0 0 0-.58-1.08 12.63 12.63 0 0 0-.77-1c-.3-.32-.62-.64-1-.93s-.71-.51-1.08-.75a8.7 8.7 0 0 0-2.24-.89 7.47 7.47 0 0 0-2.59-.24 15.45 15.45 0 0 0-3.52.8c-1 .34-1.92.7-2.82 1.09-3.57 1.55-6.82 3.3-10 5.09C62.91 51.23 56.84 55 51 58.68S39.75 66 34.64 69.41c-10.21 6.83-18.86 12.84-25 17.11L0 93.36l10.17-6.07c6.42-3.79 15.49-9.11 26.17-15.12 5.34-3 11.08-6.19 17.09-9.4s12.31-6.48 18.76-9.49c3.22-1.48 6.51-2.94 9.72-4 .8-.28 1.59-.52 2.34-.71a8.14 8.14 0 0 1 1.82-.29c-.12 0 0 0 .07.05s.21.12.27.15 0 .06.08.3a5.31 5.31 0 0 1 .17 1.22 13.52 13.52 0 0 1-.21 2 28.93 28.93 0 0 1-1.28 4.47C84.61 58 84 59.48 83.25 61c-.35.75-.73 1.49-1.1 2.22s-.79 1.49-1.14 2.09L69.07 85.53l19.19-14.24c3.69-2.74 7.49-5.41 11.15-7.9s7.27-4.87 10.75-7.08c7-4.42 13.44-8.21 19.14-11.27 3.94-2.13 7.5-3.89 10.57-5.32 1.36-.63 2.64-1.21 3.8-1.71 3.77-1.65 6.4-2.59 7.62-3.06l6.85-2.62c2.23-.36 4.54-.71 6.74-.91a26.4 26.4 0 0 1 3.42-.1 13.39 13.39 0 0 1 2.28.3l.55.15c.18.05.35.13.53.19a8.13 8.13 0 0 1 1.1.52 4.65 4.65 0 0 1 1.61 1.41 5.74 5.74 0 0 1 .32.5c.08.21.2.38.27.63a7.9 7.9 0 0 1 .42 1.67 18.05 18.05 0 0 1 0 4.83 41 41 0 0 1-1.26 6 108.85 108.85 0 0 1-5.1 13.8c-2.11 4.86-4.54 9.91-7.08 15.13l-.21.44c-2.47 5.09-5.06 10.32-7.52 15.76-1.26 2.81-2.48 5.66-3.59 8.63a55.08 55.08 0 0 0-2.71 9.39c-2.23 12.72.08 26.07 6.64 36 3.26 4.94 7.58 9.08 12.66 11.31a21.05 21.05 0 0 0 3.89 1.26c.65.14 1.28.21 1.9.32s1.25.2 1.86.24c1.23.11 2.43.23 3.6.24l1.74.06h1.7c4.48 0 15.62-2.06 12-2s-7.61.06-12-.25l-1.65-.12-1.67-.19c-1.13-.1-2.26-.3-3.41-.49-.58-.08-1.14-.22-1.71-.35s-1.15-.25-1.7-.42a17.88 17.88 0 0 1-3.16-1.28 26.47 26.47 0 0 1-10.21-10.66 40.67 40.67 0 0 1-4.71-15.45 44.31 44.31 0 0 1 4.17-24.59c1.21-2.63 2.57-5.25 4-7.85 2.13-3.92 4.37-7.79 6.6-11.63 3.61-2.66 12.82-9.31 14.88-9.65 2.58-.43 14.17 4.72 17.61 3.86s6.44-4.72 9.23-5.37 5.15 2.58 11.38 3.65c11.17 0 12.45-4.72 13.1-7.09s-16.57-29.38-16.57-29.38z"/></g></g></svg>