<svg xmlns="http://www.w3.org/2000/svg" viewBox="0 0 52.94 64.01"><defs><style>.cls-1{fill:#fff}</style></defs><title>icon-youtube</title><g id="Layer_2" data-name="Layer 2"><g id="social-media"><path class="cls-1" d="M52 58.08a6.68 6.68 0 0 1-5.71 5.18 174.89 174.89 0 0 1-19.82.74 174.88 174.88 0 0 1-19.83-.75 6.64 6.64 0 0 1-5.71-5.17A56.26 56.26 0 0 1 0 45.58a58.33 58.33 0 0 1 .93-12.5 6.76 6.76 0 0 1 5.75-5.22 182.58 182.58 0 0 1 19.79-.71 183.57 183.57 0 0 1 19.83.71 6.72 6.72 0 0 1 5.7 5.22 56.1 56.1 0 0 1 .93 12.5 58.44 58.44 0 0 1-.93 12.5zm-36.9-21.4v-3.35H4v3.36h3.72V57h3.57V36.69zM20.93 0l-4.32 14.25v9.68H13v-9.68a56.7 56.7 0 0 0-2.18-7.57C10.07 4.47 9.29 2.21 8.54 0h3.79l2.54 9.39L17.29 0zm3.82 57V39.36h-3.17v13.5q-1.07 1.5-2 1.5-.64 0-.75-.75a8.37 8.37 0 0 1 0-1.25v-13h-3.26v14a8.68 8.68 0 0 0 .29 2.61 2 2 0 0 0 2.07 1.32c1.14 0 2.36-.71 3.64-2.18V57zm5.75-38.86a7.05 7.05 0 0 1-1 4.22 4.41 4.41 0 0 1-3.79 1.82A4.39 4.39 0 0 1 22 22.36a7.13 7.13 0 0 1-1-4.22V11.9a6.93 6.93 0 0 1 1-4.18 4.39 4.39 0 0 1 3.75-1.82 4.41 4.41 0 0 1 3.79 1.82 6.93 6.93 0 0 1 1 4.18zm-3.25-6.89c0-1.64-.46-2.46-1.54-2.46s-1.54.82-1.54 2.46v7.5c0 1.64.5 2.5 1.54 2.5s1.54-.86 1.54-2.5zm9.65 33.44a12.22 12.22 0 0 0-.32-3.54 2.51 2.51 0 0 0-2.54-2 4.34 4.34 0 0 0-3.32 1.93v-7.75h-3.18V57h3.18v-1.7a4.39 4.39 0 0 0 3.32 2 2.51 2.51 0 0 0 2.54-2 12.66 12.66 0 0 0 .32-3.57zM33.72 52c0 1.61-.46 2.39-1.39 2.39a2.28 2.28 0 0 1-1.61-.79V42.83a2.29 2.29 0 0 1 1.61-.83c.93 0 1.39.82 1.39 2.39zm8.75-28h-3.25v-2c-1.29 1.5-2.5 2.21-3.68 2.21a2 2 0 0 1-2.11-1.32 9.11 9.11 0 0 1-.29-2.68V6.11h3.26v13.11a7.84 7.84 0 0 0 0 1.25c.07.5.32.79.75.79.64 0 1.32-.5 2-1.54V6.11h3.25zm6.5 27h-3.25a18.76 18.76 0 0 1-.07 2.18 1.37 1.37 0 0 1-1.43 1.29c-1.11 0-1.64-.82-1.64-2.46v-3.22H49v-3.67A7.08 7.08 0 0 0 48 41a4.88 4.88 0 0 0-7.61 0 6.81 6.81 0 0 0-1 4.14v6.18a6.72 6.72 0 0 0 1 4.14 4.54 4.54 0 0 0 3.86 1.82 4.42 4.42 0 0 0 3.86-1.89 4.13 4.13 0 0 0 .75-1.93 14 14 0 0 0 .14-2.09zm-3.18-4.79h-3.21v-1.74c0-1.61.54-2.43 1.61-2.43s1.61.82 1.61 2.43z" id="youtube"/></g></g></svg>