<svg xmlns="http://www.w3.org/2000/svg" viewBox="0 0 54.87 54.87"><defs><style>.cls-1{fill:#fff}</style></defs><title>icon-googleplus</title><g id="Layer_2" data-name="Layer 2"><g id="social-media"><path class="cls-1" d="M54.87 44.58a10.29 10.29 0 0 1-10.29 10.29H10.29A10.29 10.29 0 0 1 0 44.58V10.29A10.29 10.29 0 0 1 10.29 0h34.29a10.29 10.29 0 0 1 10.29 10.29zM32.54 25.47H19.61v4.72h7.75c-.29 2-2.32 5.89-7.75 5.89a8.65 8.65 0 0 1 0-17.29 7.7 7.7 0 0 1 5.47 2.11l3.71-3.61a13.25 13.25 0 0 0-9.18-3.57 13.72 13.72 0 1 0 0 27.43c7.89 0 13.15-5.57 13.15-13.4a13.81 13.81 0 0 0-.22-2.28zM49 29.4v-3.93h-3.92v-3.93h-3.93v3.93h-3.93v3.93h3.93v3.93h3.93V29.4z" id="google-plus"/></g></g></svg>